<svg width="40" height="40" viewBox="0 0 40 40" fill="none" xmlns="http://www.w3.org/2000/svg">
<path d="M38.3466 27.6411C35.6226 34.5875 30.4232 38.5102 23.1594 39.7217C14.8716 41.1051 6.63418 37.2443 2.33894 30.0704C1.41583 28.5289 0.799161 26.3298 0.390571 24.2141C-0.47453 19.7388 0.0980008 15.0927 2.10312 11.0031C2.61259 9.96233 3.16242 9.05942 3.71352 8.53209C5.23564 7.0753 7.0579 6.13951 9.07058 5.57172C9.9092 5.33524 10.034 5.41997 10.3682 6.20906C10.5826 6.71237 10.9458 7.06392 11.4011 7.34845C12.1401 7.81128 12.1981 8.08823 11.6646 8.77236C11.0606 9.54629 10.2686 10.1052 9.42495 10.5832C8.81332 10.931 8.179 11.2383 7.52576 11.5064C6.67075 11.8579 6.60769 12.1437 7.2168 12.8772C8.36438 14.2581 9.8802 14.9119 11.6217 15.1648C13.2448 15.4013 14.7757 15.1193 16.284 14.5313C17.2399 14.1595 17.3609 14.2328 17.6875 15.2192C17.9271 15.9413 18.2235 16.6342 18.569 17.3121C19.2992 18.7436 20.4884 19.6174 21.95 20.1814C22.4506 20.3749 22.8554 20.2699 23.2224 19.8842C24.1405 18.9206 24.4192 17.7016 24.5819 16.4484C24.6689 15.7769 24.7647 15.1054 24.7761 14.4212C24.7887 13.6916 25.0258 13.5778 25.6387 13.9445C27.2301 14.8967 28.9162 14.9283 30.6161 14.3694C32.1547 13.8636 32.702 12.5029 33.166 11.1118C33.2543 10.8488 33.161 10.7223 32.8798 10.7046C31.6792 10.625 30.7435 9.91428 29.7536 9.34775C29.1823 9.02022 29.1899 8.77363 29.7712 8.49669C30.6578 8.07432 31.4775 7.6001 31.9403 6.67063C32.1483 6.25206 32.5078 6.38863 32.8281 6.51383C34.6655 7.22831 36.2519 8.307 37.4537 9.8814C37.7816 10.3114 38.0918 10.8905 38.3743 11.5178C39.3945 13.7889 39.8321 16.2789 39.6997 18.7663C39.5547 21.5193 39.2003 25.461 38.3453 27.6437L38.3466 27.6411Z" fill="#373737"/>
<path d="M23.8642 0C23.984 0.187158 24.2892 0.0986371 24.3674 0.438809C22.7343 1.98286 21.8326 3.97078 21.5098 6.24196C21.7443 6.34439 21.8238 6.15976 21.9247 6.07377C23.4405 4.78137 25.177 4.39315 27.109 4.7624C28.3738 5.00394 29.6337 5.10131 30.8733 4.50949C30.6047 5.54138 29.6059 6.88057 28.7585 7.41675C27.6538 8.11733 26.4318 7.80498 25.2073 7.90235C26.9009 8.2969 27.9728 9.5501 29.1557 10.6553C29.7572 11.2168 30.5088 11.5216 31.3525 11.8225C29.6589 12.8848 27.964 13.0112 26.1959 12.2829C24.5389 11.5987 23.2791 10.3948 22.0848 9.1037C21.9083 8.91275 21.8074 8.57384 21.39 8.65225C22.7835 11.3268 23.1794 14.1152 22.4367 17.0402C22.2185 17.9001 22.2097 17.9077 21.4846 17.3589C19.0267 15.5012 18.5462 12.9392 18.9183 10.0774C18.9485 9.84474 18.9964 9.61459 19.0267 9.38064C19.0368 9.30477 19.0179 9.22636 18.999 8.94563C18.0216 10.7299 16.8879 12.1387 15.0114 12.7242C13.1488 13.3059 11.3858 12.9468 9.42358 12.1981C10.9583 11.8175 11.923 10.9753 12.691 9.9105C13.9647 8.14515 15.56 7.03991 17.8627 7.07911C17.5664 7.01462 17.2725 6.9438 16.9737 6.88816C16.666 6.83125 16.357 6.7832 16.0468 6.74526C15.27 6.65042 14.5007 6.52649 13.7567 6.27231C11.7251 5.57932 10.7086 4.14276 10.7074 1.6743C11.4665 3.38275 12.8033 3.47759 14.1779 3.4915C16.2044 3.51173 17.9006 4.19334 19.0885 6.10412C19.9069 3.74189 21.1958 1.79697 22.7898 0.0455248C23.1454 0.0303499 23.5023 0.0151749 23.8579 0L23.8642 0Z" fill="#373737"/>
</svg>
