<?xml version="1.0" encoding="UTF-8"?>
<svg id="Capa_2" data-name="Capa 2" xmlns="http://www.w3.org/2000/svg" viewBox="0 0 223.88 191.89">
  <defs>
    <style>
      .cls-1 {
        fill: #373737;
      }
    </style>
  </defs>
  <g id="Capa_1-2" data-name="Capa 1">
    <path class="cls-1" d="M84.57,21c3.2,0,3.57,.52,4.66,2.73,.88,1.79,1.76,3.47,2.61,5.09,1.34,2.55,2.6,4.95,3.49,7.09,4.55,10.91,14.02,17.17,25.99,17.17h.25c11.56-.07,23.91-.11,40.03-.11,6.94,0,13.89,0,20.83,.01,5.14,0,10.29,0,15.43,.01,2.71,0,3.96,.64,4.19,.86,.21,.2,.79,1.36,.79,3.9,.02,36.4,.02,72.86,0,108.38,0,2.53-.58,3.67-.78,3.87-.23,.22-1.49,.86-4.23,.87-11.7,0-23.41,0-35.11,0h-26.82s-24.49,0-24.49,0h-4.84s-22.41,0-22.41,0h-22.41c-11.76,0-23.51,0-35.27,0-3.12,0-4.52-.68-4.72-.85-.16-.19-.78-1.5-.78-4.39,0-46.46,0-92.91,0-139.37,0-2.97,.68-4.27,.86-4.45,.17-.17,1.35-.79,4.13-.79h5.28c5.11,0,10.21,0,15.32,0,5.12,0,10.23,0,15.35,0,8.8,0,15.97-.01,22.59-.03h.05m0-21s-.09,0-.13,0c-7.5,.03-15,.03-22.5,.03-10.22,0-20.44-.01-30.66-.01-1.76,0-3.53,0-5.29,0C9.85,.03,0,9.97,0,26.26,0,72.72,0,119.18,0,165.64c0,16.5,9.83,26.23,26.49,26.24,11.76,0,23.52,0,35.28,0,14.94,0,29.88,0,44.81,0,1.61,0,3.23,0,4.84,0,17.11,0,34.21,0,51.32,0,11.7,0,23.41,0,35.12,0,15.97,0,25.99-9.91,26-25.73,.02-36.14,.02-72.27,0-108.41,0-15.83-10.03-25.74-25.97-25.75-12.09,0-24.18-.02-36.27-.02-13.39,0-26.78,.02-40.17,.11-.04,0-.08,0-.11,0-3.45,0-5.27-1.03-6.61-4.25-1.91-4.59-4.45-8.92-6.65-13.39C103.25,4.67,95.41,0,84.57,0h0Z"/>
  </g>
</svg>