<?xml version="1.0" encoding="UTF-8"?>
<svg id="Capa_2" data-name="Capa 2" xmlns="http://www.w3.org/2000/svg" viewBox="0 0 223.88 191.89">
  <defs>
    <style>
      .cls-1 {
        fill: #373737;
      }
    </style>
  </defs>
  <g id="Capa_1-2" data-name="Capa 1">
    <path class="cls-1" d="M111.43,191.88c-28.31,0-56.62,0-84.93,0C9.84,191.87,0,182.14,0,165.64,0,119.18,0,72.72,0,26.26,0,9.97,9.85,.03,25.99,.02,45.48,.01,64.96,.07,84.45,0c10.9-.04,18.79,4.63,23.63,14.44,2.21,4.47,4.74,8.8,6.65,13.39,1.36,3.26,3.21,4.28,6.72,4.25,25.48-.16,50.96-.1,76.44-.09,15.94,0,25.96,9.92,25.97,25.75,.02,36.14,.02,72.27,0,108.41,0,15.81-10.03,25.72-26,25.73-28.81,.01-57.62,0-86.43,0Z"/>
  </g>
</svg>