<?xml version="1.0" encoding="UTF-8"?>
<svg id="Capa_2" data-name="Capa 2" xmlns="http://www.w3.org/2000/svg" viewBox="0 0 208.01 213.57">
  <defs>
    <style>
      .cls-1 {
        fill: #373737;
      }
    </style>
  </defs>
  <g id="Capa_1-2" data-name="Capa 1">
    <path class="cls-1" d="M206.15,136.29c-5.33-4.51-10.52-9.2-15.84-13.73-1.68-1.43-2.26-2.81-1.89-5.13,1.13-7.1,1.16-14.29-.03-21.39-.39-2.36,.35-3.7,2-5.1,5.2-4.41,10.26-9,15.51-13.35,2.11-1.74,2.74-3.04,1.14-5.72-7.32-12.27-14.43-24.66-21.43-37.11-1.38-2.45-2.77-2.62-5.1-1.77-6.38,2.35-12.85,4.47-19.23,6.81-2.22,.82-3.89,.73-5.85-.86-5.45-4.41-11.5-7.92-18.05-10.41-2.5-.95-3.6-2.41-4.04-4.96-1.15-6.71-2.6-13.37-3.76-20.08-.44-2.53-1.43-3.49-4.18-3.46-14.15,.16-28.31,.23-42.46-.03-3.4-.06-4.18,1.42-4.67,4.12-1.17,6.55-2.49,13.06-3.68,19.6-.41,2.26-1.23,3.8-3.64,4.71-6.72,2.53-12.92,6.11-18.48,10.64-2.03,1.65-3.74,1.44-5.88,.67-6.24-2.25-12.55-4.31-18.77-6.61-2.46-.91-3.98-1-5.51,1.76C15.36,47.36,8.2,59.72,.93,72.02c-1.4,2.36-1.16,3.61,.92,5.32,5.39,4.44,10.53,9.18,15.87,13.7,1.69,1.43,2.23,2.81,1.87,5.12-1.11,7.1-1.21,14.29,.03,21.38,.42,2.37-.33,3.69-1.99,5.09-5.32,4.52-10.51,9.21-15.86,13.71-1.77,1.49-2.41,2.55-1.02,4.9,7.46,12.56,14.74,25.23,21.93,37.96,1.18,2.08,2.27,2.26,4.3,1.53,6.55-2.38,13.18-4.53,19.73-6.91,2.2-.81,3.87-.84,5.85,.77,5.43,4.44,11.5,7.89,18.05,10.39,2.48,.95,3.61,2.43,4.04,4.99,1.11,6.55,2.52,13.05,3.64,19.61,.48,2.87,1.54,4.05,4.77,3.99,12.65-.23,25.31-.1,37.96-.1q7.72,.01,9.21-7.42c.62-3.1,1.53-6.18,1.76-9.3,.52-7,2.96-12.28,10.47-14.02,1.41-.33,2.97-1.05,3.93-2.08,8.53-9.19,17.93-7.06,27.69-2.48,2.84,1.33,5.93,2.12,9.17,3.25,1.12-.2,1.49-1.34,2.05-2.31,7.3-12.66,14.53-25.36,21.98-37.93,1.43-2.4,.58-3.44-1.13-4.89Zm-102.93,13.18c-23.4-.54-42.55-20.14-42.14-43.12,.42-23.39,19.9-42.54,42.99-42.27,23.49,.28,42.97,20.22,42.38,43.37-.6,23.42-20.28,42.55-43.23,42.02Z"/>
  </g>
</svg>