<?xml version="1.0" encoding="UTF-8"?>
<svg id="Capa_2" data-name="Capa 2" xmlns="http://www.w3.org/2000/svg" viewBox="0 0 208.01 213.57">
  <defs>
    <style>
      .cls-1 {
        fill: none;
      }

      .cls-2 {
        fill: #373737;
      }
    </style>
  </defs>
  <g id="Capa_1-2" data-name="Capa 1">
    <g>
      <path class="cls-1" d="M179.21,141.07c-3.76-3.28-7.46-6.63-11.34-9.77-2.01-1.62-2.75-3.14-2.21-5.9,1.98-10.14,3.83-20.53,.98-30.65-2.2-7.79,.2-12.37,6.33-17.07,9.3-7.12,8.91-7.51,2.79-17.36-1.21-1.95-2.23-2.38-4.33-1.57-4.64,1.77-9.44,3.16-14.06,4.99-2.65,1.06-4.5,.64-6.63-1.25-7.48-6.66-15.39-12.96-25.18-15.65-7.82-2.16-11.32-6.42-12.42-14.53-1.53-11.36-2.15-11.28-13.38-10.71-.16,.01-.33,.02-.5,0-2.12-.25-2.88,.85-3.22,2.81-.85,4.91-2.14,9.75-2.74,14.69-.35,2.97-1.63,4.22-4.33,5.14-9.45,3.24-19.02,6.71-26.18,13.87-5.83,5.84-11.16,6.68-18.71,3.43-10.32-4.46-10.47-3.84-16,6-1.37,2.44-.96,3.68,1.08,5.3,3.77,3.01,7.24,6.38,10.98,9.43,2,1.62,2.73,3.15,2.2,5.91-1.97,10.14-3.88,20.52-.98,30.64,2.24,7.8-.16,12.41-6.3,17.08-9.06,6.9-8.66,7.25-3.05,16.9,1.33,2.29,2.5,2.94,5,1.96,4.47-1.76,9.13-3.06,13.58-4.87,2.63-1.07,4.49-.79,6.64,1.14,7.33,6.57,15.11,12.85,24.69,15.51,8.2,2.26,12,6.57,13.04,15.12,1.34,10.93,1.99,10.76,13.18,10.39,2.5-.09,3.49-.85,3.87-3.32,.76-4.91,2.06-9.75,2.75-14.68,.35-2.54,1.45-3.65,3.77-4.48,7.49-2.69,14.92-5.53,21.61-10.02,4.94-3.31,8.74-9.76,14.3-10.13,5.49-.37,11.23,3.44,16.9,5.31,.99,.33,2.32,1.58,3.16,.27,2.32-3.63,4.39-7.42,6.66-11.31-.11-1.22-1.1-1.88-1.95-2.62Zm-75.76,8.41c-23.4-.54-42.55-20.14-42.14-43.12,.42-23.39,19.9-42.54,42.99-42.27,23.49,.28,42.97,20.22,42.38,43.37-.6,23.42-20.28,42.55-43.23,42.02Z"/>
      <path class="cls-1" d="M179.21,141.07c-3.76-3.28-7.46-6.63-11.34-9.77-2.01-1.62-2.75-3.14-2.21-5.9,1.98-10.14,3.83-20.53,.98-30.65-2.2-7.79,.2-12.37,6.33-17.07,9.3-7.12,8.91-7.51,2.79-17.36-1.21-1.95-2.23-2.38-4.33-1.57-4.64,1.77-9.44,3.16-14.06,4.99-2.65,1.06-4.5,.64-6.63-1.25-7.48-6.66-15.39-12.96-25.18-15.65-7.82-2.16-11.32-6.42-12.42-14.53-1.53-11.36-2.15-11.28-13.38-10.71-.16,.01-.33,.02-.5,0-2.12-.25-2.88,.85-3.22,2.81-.85,4.91-2.14,9.75-2.74,14.69-.35,2.97-1.63,4.22-4.33,5.14-9.45,3.24-19.02,6.71-26.18,13.87-5.83,5.84-11.16,6.68-18.71,3.43-10.32-4.46-10.47-3.84-16,6-1.37,2.44-.96,3.68,1.08,5.3,3.77,3.01,7.24,6.38,10.98,9.43,2,1.62,2.73,3.15,2.2,5.91-1.97,10.14-3.88,20.52-.98,30.64,2.24,7.8-.16,12.41-6.3,17.08-9.06,6.9-8.66,7.25-3.05,16.9,1.33,2.29,2.5,2.94,5,1.96,4.47-1.76,9.13-3.06,13.58-4.87,2.63-1.07,4.49-.79,6.64,1.14,7.33,6.57,15.11,12.85,24.69,15.51,8.2,2.26,12,6.57,13.04,15.12,1.34,10.93,1.99,10.76,13.18,10.39,2.5-.09,3.49-.85,3.87-3.32,.76-4.91,2.06-9.75,2.75-14.68,.35-2.54,1.45-3.65,3.77-4.48,7.49-2.69,14.92-5.53,21.61-10.02,4.94-3.31,8.74-9.76,14.3-10.13,5.49-.37,11.23,3.44,16.9,5.31,.99,.33,2.32,1.58,3.16,.27,2.32-3.63,4.39-7.42,6.66-11.31-.11-1.22-1.1-1.88-1.95-2.62Zm-75.76,8.41c-23.4-.54-42.55-20.14-42.14-43.12,.42-23.39,19.9-42.54,42.99-42.27,23.49,.28,42.97,20.22,42.38,43.37-.6,23.42-20.28,42.55-43.23,42.02Z"/>
      <path class="cls-2" d="M206.15,136.29c-5.33-4.51-10.52-9.2-15.84-13.73-1.68-1.43-2.26-2.81-1.89-5.13,1.13-7.1,1.16-14.29-.03-21.39-.39-2.36,.35-3.7,2-5.1,5.2-4.41,10.26-9,15.51-13.35,2.11-1.74,2.74-3.04,1.14-5.72-7.32-12.27-14.43-24.66-21.43-37.11-1.38-2.45-2.77-2.62-5.1-1.77-6.38,2.35-12.85,4.47-19.23,6.81-2.22,.82-3.89,.73-5.85-.86-5.45-4.41-11.5-7.92-18.05-10.41-2.5-.95-3.6-2.41-4.04-4.96-1.15-6.71-2.6-13.37-3.76-20.08-.44-2.53-1.43-3.49-4.18-3.46-14.15,.16-28.31,.23-42.46-.03-3.4-.06-4.18,1.42-4.67,4.12-1.17,6.55-2.49,13.06-3.68,19.6-.41,2.26-1.23,3.8-3.64,4.71-6.72,2.53-12.92,6.11-18.48,10.64-2.03,1.65-3.74,1.44-5.88,.67-6.24-2.25-12.55-4.31-18.77-6.61-2.46-.91-3.98-1-5.51,1.76C15.36,47.36,8.2,59.72,.93,72.02c-1.4,2.36-1.16,3.61,.92,5.32,5.39,4.44,10.53,9.18,15.87,13.7,1.69,1.43,2.23,2.81,1.87,5.12-1.11,7.1-1.21,14.29,.03,21.38,.42,2.37-.33,3.69-1.99,5.09-5.32,4.52-10.51,9.21-15.86,13.71-1.77,1.49-2.41,2.55-1.02,4.9,7.46,12.56,14.74,25.23,21.93,37.96,1.18,2.08,2.27,2.26,4.3,1.53,6.55-2.38,13.18-4.53,19.73-6.91,2.2-.81,3.87-.84,5.85,.77,5.43,4.44,11.5,7.89,18.05,10.39,2.48,.95,3.61,2.43,4.04,4.99,1.11,6.55,2.52,13.05,3.64,19.61,.48,2.87,1.54,4.05,4.77,3.99,12.65-.23,25.31-.1,37.96-.1q7.72,.01,9.21-7.42c.62-3.1,1.53-6.18,1.76-9.3,.52-7,2.96-12.28,10.47-14.02,1.41-.33,2.97-1.05,3.93-2.08,8.53-9.19,17.93-7.06,27.69-2.48,2.84,1.33,5.93,2.12,9.17,3.25,1.12-.2,1.49-1.34,2.05-2.31,7.3-12.66,14.53-25.36,21.98-37.93,1.43-2.4,.58-3.44-1.13-4.89Zm-31.65,18.71c-.84,1.31-2.17,.06-3.16-.27-5.67-1.87-11.41-5.68-16.9-5.31-5.56,.37-9.36,6.82-14.3,10.13-6.69,4.49-14.12,7.33-21.61,10.02-2.32,.83-3.42,1.94-3.77,4.48-.69,4.93-1.99,9.77-2.75,14.68-.38,2.47-1.37,3.23-3.87,3.32-11.19,.37-11.84,.54-13.18-10.39-1.04-8.55-4.84-12.86-13.04-15.12-9.58-2.66-17.36-8.94-24.69-15.51-2.15-1.93-4.01-2.21-6.64-1.14-4.45,1.81-9.11,3.11-13.58,4.87-2.5,.98-3.67,.33-5-1.96-5.61-9.65-6.01-10,3.05-16.9,6.14-4.67,8.54-9.28,6.3-17.08-2.9-10.12-.99-20.5,.98-30.64,.53-2.76-.2-4.29-2.2-5.91-3.74-3.05-7.21-6.42-10.98-9.43-2.04-1.62-2.45-2.86-1.08-5.3,5.53-9.84,5.68-10.46,16-6,7.55,3.25,12.88,2.41,18.71-3.43,7.16-7.16,16.73-10.63,26.18-13.87,2.7-.92,3.98-2.17,4.33-5.14,.6-4.94,1.89-9.78,2.74-14.69,.34-1.96,1.1-3.06,3.22-2.81,.17,.02,.34,.01,.5,0,11.23-.57,11.85-.65,13.38,10.71,1.1,8.11,4.6,12.37,12.42,14.53,9.79,2.69,17.7,8.99,25.18,15.65,2.13,1.89,3.98,2.31,6.63,1.25,4.62-1.83,9.42-3.22,14.06-4.99,2.1-.81,3.12-.38,4.33,1.57,6.12,9.85,6.51,10.24-2.79,17.36-6.13,4.7-8.53,9.28-6.33,17.07,2.85,10.12,1,20.51-.98,30.65-.54,2.76,.2,4.28,2.21,5.9,3.88,3.14,7.58,6.49,11.34,9.77,.85,.74,1.84,1.4,1.95,2.62-2.27,3.89-4.34,7.68-6.66,11.31Z"/>
      <path class="cls-2" d="M104.3,64.09c-23.09-.27-42.57,18.88-42.99,42.27-.41,22.98,18.74,42.58,42.14,43.12,22.95,.53,42.63-18.6,43.23-42.02,.59-23.15-18.89-43.09-42.38-43.37Zm-.65,63.89c-11.87-.13-20.92-9.43-20.84-21.41,.09-11.93,9.29-21,21.28-20.97,11.93,.04,21.09,9.22,21.1,21.15,.01,12.14-9.35,21.36-21.54,21.23Z"/>
    </g>
  </g>
</svg>