<?xml version="1.0" encoding="UTF-8"?>
<svg id="Capa_2" data-name="Capa 2" xmlns="http://www.w3.org/2000/svg" viewBox="0 0 204 221.44">
  <defs>
    <style>
      .cls-1 {
        fill: #373737;
      }
    </style>
  </defs>
  <g id="Capa_1-2" data-name="Capa 1">
    <g>
      <path class="cls-1" d="M91.63,143.31c18.42,18.57,35.28,35.44,51.19,51.22-13.19,7.25-26.66,10.92-40.18,10.92-11.18,0-22.77-2.49-34.43-7.42-25.41-10.72-41.56-28.67-49.06-54.66,2.16,0,4.43,0,6.86,0,4.24,0,8.47,0,12.71,0,3.61,0,7.22,0,10.84,0h.92c3.68,0,7.35,0,11.03,0,3.69,0,7.38,0,11.07,0,7.54,0,13.52-.02,19.06-.06m2.03-16.02c-.05,0-.1,0-.16,0-6.98,.06-13.96,.08-20.93,.08-7.36,0-14.73-.02-22.09-.02-.31,0-.61,0-.92,0-7.85,0-15.7,.01-23.55,.01s-14.93,0-22.4-.05c-.06,0-.11,0-.17,0-2.47,0-3.82,.3-3.34,3.5,5.83,38.52,25.93,66.78,61.89,81.95,13.82,5.83,27.38,8.67,40.65,8.67,21.4,0,42.02-7.41,61.62-21.64,3.14-2.28,3.14-3.47,.38-6.2-21.2-20.94-42.26-42.01-63.24-63.17-2.3-2.32-4.62-3.14-7.74-3.14h0Z"/>
      <path class="cls-1" d="M177.55,77.67c6.93,12.69,10.44,26.4,10.45,40.91-.06,15.03-3.49,28.67-10.43,41.35-13.93-14.08-27.79-27.88-41.14-41.15,14.32-14.21,27.91-27.79,41.13-41.11m2.17-23.83c-.75,0-1.6,.51-2.73,1.65-20.01,20.25-40.15,40.37-60.39,60.4-2.43,2.4-2.15,3.63,.1,5.86,20.09,19.93,40.16,39.9,59.99,60.08,1.29,1.31,2.23,1.86,3.04,1.86,1.12,0,1.98-1.07,3.12-2.58,13.86-18.4,21.05-39.04,21.14-62.5,0-23.06-7.33-43.98-21.5-62.6-1.03-1.35-1.82-2.17-2.78-2.17h0Z"/>
      <path class="cls-1" d="M77.15,36.13c0,5.64,0,11.26,0,16.78,0,3.65,0,7.3,0,10.96,0,3.74,0,7.49-.01,11.23,0,6.29-.02,12.72,0,19.17-10.11-.03-20.53-.04-31.55-.04-8.52,0-17.33,0-26.64,.03,4.07-13.56,11.5-26.1,21.64-36.24,10.18-10.19,22.83-17.71,36.55-21.88m13.46-19.02c-.35,0-.74,.03-1.18,.08C42.6,23.14,5.64,60.11,.1,106.61c-.36,2.99,.49,3.67,3.28,3.67,.02,0,.03,0,.05,0,14.06-.04,28.12-.06,42.17-.06s29.16,.03,43.74,.09c.02,0,.04,0,.06,0,3.11,0,3.85-1.02,3.82-3.99-.14-14.15-.06-28.3-.06-42.45,0-14.32-.05-28.64,.04-42.95,.02-2.45-.17-3.8-2.59-3.8h0Z"/>
      <g>
        <path class="cls-1" d="M124.26,59.33c0-17.5,0-35.56-.05-53.39,16.87,2.74,31.27,8.72,43.88,18.24-12.1,12-24.31,24.2-36.13,36.02-2.57,2.56-5.13,5.13-7.7,7.69v-8.56Z"/>
        <path class="cls-1" d="M129.73,12.61c11.04,2.47,20.9,6.54,29.82,12.31-9.99,9.93-20.01,19.94-29.78,29.71,0-13.83,0-27.96-.03-42.02M121.09,0c-2,0-2.4,1.06-2.39,3.43,.09,24.94,.05,49.88,.06,74.83,0,.6,.07,1.2,.13,2.14,.79-.46,1.24-.61,1.54-.91,17.89-17.86,35.73-35.76,53.69-53.55,2.14-2.12,1.32-2.97-.55-4.47C158.5,9.45,141.26,2.75,122.28,.09,121.83,.03,121.44,0,121.09,0h0Z"/>
      </g>
    </g>
  </g>
</svg>