<?xml version="1.0" encoding="UTF-8"?>
<svg id="Capa_2" data-name="Capa 2" xmlns="http://www.w3.org/2000/svg" viewBox="0 0 204 221.44">
  <defs>
    <style>
      .cls-1 {
        fill: #373737;
      }
    </style>
  </defs>
  <g id="Capa_1-2" data-name="Capa 1">
    <g>
      <path class="cls-1" d="M49.55,127.35c14.65,0,29.3,.07,43.95-.06,3.2-.03,5.56,.79,7.9,3.14,20.98,21.16,42.04,42.23,63.24,63.17,2.76,2.72,2.75,3.92-.38,6.2-31.75,23.05-66.16,28.2-102.27,12.96C26.03,197.6,5.93,169.34,.1,130.82c-.5-3.27,.93-3.51,3.51-3.5,15.32,.07,30.63,.04,45.95,.03Z"/>
      <path class="cls-1" d="M204,118.61c-.09,23.46-7.28,44.1-21.14,62.5-1.96,2.6-3.06,3.88-6.16,.73-19.83-20.19-39.9-40.15-59.99-60.08-2.25-2.23-2.53-3.46-.1-5.86,20.24-20.02,40.38-40.15,60.39-60.4,2.58-2.61,3.68-1.9,5.51,.51,14.16,18.63,21.49,39.55,21.5,62.6Z"/>
      <path class="cls-1" d="M93.16,63.86c0,14.15-.08,28.3,.06,42.45,.03,2.99-.72,4.01-3.88,3.99-28.64-.12-57.28-.1-85.92-.02-2.83,0-3.69-.66-3.33-3.67C5.65,60.11,42.6,23.14,89.43,17.2c3.54-.45,3.79,.91,3.77,3.71-.09,14.32-.04,28.63-.04,42.95Z"/>
      <path class="cls-1" d="M118.89,80.4c-.06-.95-.13-1.55-.13-2.14,0-24.94,.03-49.88-.06-74.83-.01-2.78,.55-3.76,3.58-3.34,18.98,2.65,36.22,9.36,51.29,21.38,1.88,1.5,2.69,2.35,.55,4.47-17.96,17.79-35.8,35.69-53.69,53.55-.3,.3-.76,.45-1.54,.91Z"/>
    </g>
  </g>
</svg>