<?xml version="1.0" encoding="UTF-8"?>
<svg id="Capa_2" data-name="Capa 2" xmlns="http://www.w3.org/2000/svg" viewBox="0 0 199.99 227.93">
  <defs>
    <style>
      .cls-1 {
        fill: #373737;
      }
    </style>
  </defs>
  <g id="Capa_1-2" data-name="Capa 1">
    <g>
      <path class="cls-1" d="M181.15,69.51c-6.07-8.3-8.67-14.02,1.15-20.39,6.19-4.01,5.09-7.62,.15-12.46-4.98-4.88-8.95-7.39-13.49-.31-6.52,10.16-13.17,7.93-22.61,2.89C79.7,3.59-.36,52.5,0,128.17c.2,43.26,27.52,81,68.56,94.7,41.06,13.71,86.75-1.11,112.46-36.49,25.03-34.44,25.52-82.21,.13-116.87Zm-90.19,79.31c.21-1.66-.09-3.07-.61-4.29-8.38-3.54-14.28-11.83-14.28-21.53s6.19-18.43,14.95-21.79c.64-8.88-.73-18.02-.23-26.9,.35-6.3-.12-10.98,8.85-10.89,8.26,.06,9.81,3.39,9.31,10.4-.43,6.25-.17,12.59-.05,18.89,.05,2.93-.15,5.93-.15,8.85,8.26,3.6,14.05,11.83,14.05,21.44,0,8.03-4.06,15.1-10.22,19.31-4.01,7.1-9.47,12.91-13.15,12.91-4.55-.03-9.26,.35-8.47-6.4Z"/>
      <path class="cls-1" d="M99.31,18.52c-5.79,0-11.63-.48-17.36,.11-8.32,.87-9.24-3.43-9.43-10.3C72.3,.45,76.34-.07,82.39,.08c11.57,.29,23.17,.45,34.73-.05,7.23-.31,10.18,1.52,10.22,9.47,.04,8.46-3.9,9.54-10.67,9.09-5.76-.38-11.57-.08-17.36-.08Z"/>
    </g>
  </g>
</svg>