<?xml version="1.0" encoding="UTF-8"?>
<svg id="Capa_2" data-name="Capa 2" xmlns="http://www.w3.org/2000/svg" viewBox="0 0 200 227.93">
  <defs>
    <style>
      .cls-1 {
        fill: #373737;
      }
    </style>
  </defs>
  <g id="Capa_1-2" data-name="Capa 1">
    <g>
      <path class="cls-1" d="M122.8,123c0,8.03-4.06,15.1-10.22,19.31-4,7.1-9.46,12.91-13.14,12.91-4.56-.03-9.26,.35-8.47-6.4,.2-1.66-.09-3.07-.61-4.29-8.38-3.53-14.28-11.83-14.28-21.53s6.19-18.43,14.95-21.79c.64-8.88-.73-18.02-.23-26.9,.35-6.31-.12-10.98,8.85-10.89,8.27,.06,9.81,3.39,9.32,10.4-.44,6.25-.18,12.59-.06,18.9,.06,2.92-.15,5.93-.15,8.85,8.27,3.59,14.05,11.83,14.05,21.44Z"/>
      <path class="cls-1" d="M181.16,69.51c-6.07-8.29-8.67-14.02,1.15-20.39,6.19-4.01,5.09-7.62,.15-12.46-4.98-4.88-8.95-7.39-13.5-.31-6.51,10.15-13.17,7.93-22.61,2.88C79.7,3.59-.35,52.5,0,128.17c.2,43.26,27.53,81.01,68.57,94.71,41.06,13.71,86.74-1.12,112.46-36.49,25.03-34.44,25.52-82.21,.13-116.87ZM99.36,209.38c-45.91-.24-81.66-36.76-81.24-83,.4-44.78,37.41-81.14,82.31-80.86,45.51,.28,81.67,37.38,81.24,83.38-.41,45.08-36.86,80.71-82.31,80.48Z"/>
      <path class="cls-1" d="M99.31,18.52c-5.79,0-11.63-.48-17.36,.11-8.32,.87-9.24-3.43-9.43-10.3C72.3,.45,76.34-.07,82.4,.08c11.57,.29,23.17,.45,34.73-.05,7.23-.31,10.18,1.52,10.22,9.47,.04,8.46-3.9,9.54-10.67,9.09-5.76-.38-11.57-.08-17.36-.08Z"/>
    </g>
  </g>
</svg>